<svg aria-hidden="true" fill="none" width="199" height="132" viewBox="0 0 199 132" xmlns="http://www.w3.org/2000/svg" class="_1jyak14k" focusable="false"><path d="M26.4874 45.0876L6.73309 4.22697H41.7481L59.9601 43.9604L60.4792 45.0876H67.1233L67.6423 43.9753L85.9433 4.22697H120.973L101.189 45.0876H105.876L127.706 0H83.2293L63.8012 42.2103L44.4621 0H0L21.801 45.0876H26.4874Z" fill="currentColor"></path><path d="M84.9965 78.5314L63.8184 122.299L42.6552 78.5314H37.9687L63.8184 131.999L89.6978 78.5314H84.9965Z" fill="currentColor"></path><path d="M134.945 45.0876V4.12315H171.176V45.0876H175.299V0H130.822V45.0876H134.945Z" fill="currentColor"></path><path d="M171.176 78.5314V127.876H134.945V78.5314H130.822V131.999H175.299V78.5314H171.176Z" fill="currentColor"></path></svg>