<svg xmlns="http://www.w3.org/2000/svg" fill="none" aria-hidden="true" class="_1o5pgyxd _1o5pgyxe _1n4m2yu0" viewBox="0 0 46 35"><path fill="currentColor" d="M46.2661.8008H34.7236v33.6h11.5425v-33.6ZM33.9162.8008l-16.5804 33.6L.7768.8008H12.314l5.0193 10.7437L22.3766.8008h11.5396ZM46.9194 1.4394c.0862 0 .1294.0355.1294.1064 0 .0592-.0333.093-.0999.1013l.1084.1644h-.0634l-.1034-.16h-.0625v.16h-.059v-.372h.1504Zm-.0235.1652c.0358 0 .0606-.0046.0739-.014.0133-.0093.02-.025.02-.0472 0-.038-.0267-.0571-.0799-.0571h-.0817v.1183h.0677Z"/><path fill="currentColor" d="M46.8961 1.9478c-.1807 0-.3277-.1442-.3277-.3216 0-.1773.147-.3215.3277-.3215.1808 0 .3278.1442.3278.3215s-.147.3216-.3278.3216Zm0-.5927c-.1524 0-.2765.1216-.2765.2713 0 .1496.124.2713.2765.2713.1526 0 .2766-.1217.2766-.2713 0-.1497-.124-.2713-.2766-.2713Z"/></svg>