<svg xmlns="http://www.w3.org/2000/svg" width="75" height="75" fill="none" viewBox="0 0 75 75" aria-hidden="true" focusable="false"><g clip-path="url(#:R18hdkvf7afcq:)"><rect width="75" height="75" rx="37.5" fill="black" fill-opacity="0.4"></rect><path fill-rule="evenodd" clip-rule="evenodd" d="M37.5 75C58.2107 75 75 58.2107 75 37.5C75 16.7893 58.2107 0 37.5 0C16.7893 0 0 16.7893 0 37.5C0 58.2107 16.7893 75 37.5 75ZM31.6852 27.0487C31.3486 26.8324 30.9208 26.817 30.5696 27.0088C30.2184 27.2005 30 27.5686 30 27.9688V47.6562C30 48.0564 30.2184 48.4245 30.5696 48.6163C30.9208 48.808 31.3486 48.7926 31.6852 48.5763L46.9977 38.7326C47.3107 38.5313 47.5 38.1847 47.5 37.8125C47.5 37.4403 47.3107 37.0937 46.9977 36.8924L31.6852 27.0487Z" fill="currentColor"></path></g><defs><clipPath id=":R18hdkvf7afcq:"><rect width="75" height="75" rx="37.5" fill="currentColor"></rect></clipPath></defs></svg>