<svg xmlns="http://www.w3.org/2000/svg" fill="currentColor" aria-hidden="true" class="_1jyak1416 _1n4m2yu1" viewBox="0 0 93 20"><g clip-path="url(#a)"><path d="M56.9502 16.0002c1.78 0 3.23-1.44 3.23-3.23v-5.55c0-1.07.87-1.94 1.94-1.94h6.26s.09-.04.09-.09v-1.11s-.04-.09-.09-.09h-7.54c-1.78 0-3.23 1.44-3.23 3.23v5.55c0 1.07-.87 1.94-1.94 1.94h-6.17s-.09.04-.09.09v1.11s.04.09.09.09h7.45ZM71.05 8.51V4.09s.04-.09.09-.09h17.04s.09.04.09.09V5.2s-.04.09-.09.09H73.7s-.09.04-.09.09v2.88c0 .51.41.92.92.92h10.78c1.89 0 3.41 1.53 3.41 3.41 0 1.88-1.53 3.41-3.41 3.41H71.13s-.09-.04-.09-.09V14.8s.04-.09.09-.09h12.9c1.18 0 2.13-.95 2.13-2.13s-.97-2.14-2.15-2.14H72.99c-1.07 0-1.94-.87-1.94-1.94v.01ZM45.7401 9.17c1.07 0 1.94-.87 1.94-1.94 0-1.07-.87-1.94-1.94-1.94h-13.07s-.09-.04-.09-.09V4.09s.04-.09.09-.09h14.36c1.78 0 3.23 1.44 3.23 3.23s-1.44 3.23-3.23 3.23h-9.93c-1.07 0-1.94.87-1.94 1.94v3.52s-.04.09-.09.09h-2.39s-.09-.04-.09-.09V12.4c0-1.78 1.44-3.23 3.23-3.23h9.93-.01ZM9.6904 0v18.66l4.23 1.34V4.35c0-.74.33-1.23.86-1.06.69.19.82.87.82 1.6v6.25c2.63 1.27 4.7 0 4.7-3.36s-1.21-4.96-4.79-6.19c-1.41-.47-4.02-1.26-5.82-1.59Z"/><path d="m14.7207 17.2696 6.79-2.42c.77-.28.89-.67.26-.87-.63-.21-1.76-.15-2.53.13l-4.52 1.59v-2.54l.26-.09s1.31-.46 3.15-.66c1.84-.2 4.09.03 5.86.69 1.99.63 2.22 1.56 1.71 2.2-.51.64-1.75 1.1-1.75 1.1l-9.22 3.31v-2.44h-.01ZM1.9404 17.0095c-2.04-.57-2.38-1.77-1.45-2.47.86-.63 2.32-1.11 2.32-1.11l6.05-2.16v2.46l-4.35 1.56c-.77.28-.89.66-.27.87.63.21 1.75.15 2.53-.13l2.09-.75v2.19c-.14.02-.29.05-.42.07-2.09.35-4.31.2-6.5-.52v-.01ZM24.2607 18c.59 0 1 .44 1 1s-.4 1-1 1-1-.44-1-1 .41-1 1-1Zm0 1.85c.5 0 .84-.38.84-.85s-.33-.85-.84-.85-.84.38-.84.85.33.85.84.85Zm-.4-1.43h.46c.21 0 .37.06.37.3 0 .14-.07.24-.21.28.08.02.13.08.17.21.04.13.08.25.11.36h-.21c-.03-.09-.07-.23-.09-.31-.03-.13-.07-.18-.25-.18h-.14v.49h-.21v-1.16.01Zm.21.52h.18c.15 0 .24-.06.24-.19 0-.16-.11-.18-.22-.18h-.2v.37ZM91.3305 14.94h.18c.15 0 .24-.06.24-.19 0-.16-.11-.18-.22-.18h-.2v.37Zm-.21-.52h.46c.21 0 .37.06.37.3 0 .14-.07.24-.21.28.08.02.13.08.17.21.04.13.08.25.11.36h-.21c-.03-.09-.07-.23-.09-.31-.03-.13-.07-.18-.25-.18h-.14v.49h-.21v-1.16.01Zm.4 1.43c.5 0 .84-.38.84-.85s-.34-.85-.84-.85c-.5 0-.84.38-.84.85s.33.85.84.85Zm0-1.85c.59 0 1 .44 1 1s-.4 1-1 1-1-.44-1-1 .41-1 1-1Z"/></g><defs><clipPath id="a"><path d="M0 .5h92.51v20H0z"/></clipPath></defs></svg>