<svg xmlns="http://www.w3.org/2000/svg" fill="currentColor" viewBox="0 0 158 20" class="_1jyak1416 _1n4m2yu1" aria-hidden="true" focusable="false"><g clip-path="url(#:Rl1dkvf7afcq:)"><path d="M10.5 8.02C10.5 8.02 10.53 8.02 10.53 8.04C13.52 10.31 18.64 15.94 17.08 17.53C15.32 19.07 13.02 20 10.5 20C7.98 20 5.68 19.07 3.92 17.53C2.36 15.94 7.48 10.31 10.47 8.04C10.47 8.04 10.49 8.02 10.5 8.02ZM15.71 1.46C14.18 0.55 12.52 0 10.5 0C8.48 0 6.82 0.55 5.29 1.46C5.27 1.47 5.26 1.49 5.27 1.51C5.27 1.53 5.3 1.53 5.32 1.53C7.26 1.11 10.2 2.78 10.48 2.95H10.5C10.5 2.95 10.51 2.95 10.52 2.95C10.8 2.78 13.74 1.11 15.68 1.53C15.7 1.53 15.72 1.53 15.73 1.51C15.73 1.49 15.73 1.47 15.71 1.46ZM3.5 2.87C3.5 2.87 3.47 2.89 3.46 2.9C1.63 4.71 0.5 7.22 0.5 10C0.5 12.28 1.26 14.38 2.54 16.06C2.55 16.08 2.58 16.09 2.59 16.08C2.61 16.08 2.61 16.05 2.6 16.03C1.84 13.67 5.74 7.96 7.75 5.56C7.75 5.56 7.76 5.54 7.76 5.53C7.76 5.52 7.76 5.51 7.74 5.5C4.7 2.46 3.67 2.78 3.5 2.87ZM13.25 5.49C13.25 5.49 13.23 5.51 13.23 5.52C13.23 5.53 13.23 5.54 13.24 5.55C15.25 7.95 19.15 13.66 18.39 16.02C18.39 16.04 18.39 16.06 18.4 16.07C18.42 16.08 18.44 16.07 18.45 16.05C19.73 14.37 20.49 12.27 20.49 9.99C20.49 7.22 19.36 4.7 17.53 2.89C17.52 2.88 17.5 2.86 17.49 2.86C17.32 2.77 16.29 2.45 13.24 5.49H13.25ZM35.3 16.16H33.25L29.73 11.31L26.21 16.16H24.16L28.71 9.9L24.52 4.14H26.57L29.74 8.5L32.91 4.14H34.96L30.77 9.9L35.32 16.16H35.3ZM45.92 12.74C45.92 13.8 45.57 14.64 44.88 15.24C44.19 15.85 43.19 16.15 41.9 16.15H36.26V10.8H33.58L34.69 9.27H36.25V4.14H41.65C42.86 4.14 43.8 4.43 44.45 5C45.1 5.57 45.42 6.34 45.42 7.27C45.42 8.43 44.9 9.3 43.86 9.88C44.53 10.14 45.04 10.52 45.38 11.01C45.73 11.51 45.9 12.09 45.9 12.75L45.92 12.74ZM38.1 9.27H41.55C42.24 9.27 42.77 9.11 43.12 8.81C43.47 8.5 43.64 8.04 43.64 7.42C43.64 6.89 43.46 6.47 43.1 6.17C42.74 5.87 42.22 5.72 41.55 5.72H38.1V9.27ZM44.07 12.71C44.07 12.08 43.88 11.6 43.5 11.28C43.12 10.96 42.55 10.8 41.79 10.8H38.09V14.57H41.79C42.52 14.57 43.09 14.41 43.48 14.09C43.87 13.77 44.06 13.3 44.06 12.71H44.07ZM58.27 10.15C58.27 11.08 58.14 11.93 57.87 12.69C57.6 13.44 57.2 14.12 56.67 14.7C56.13 15.28 55.5 15.72 54.8 16C54.09 16.29 53.29 16.43 52.42 16.43C51.55 16.43 50.73 16.28 50.02 16C49.31 15.71 48.69 15.27 48.16 14.7C47.62 14.13 47.21 13.46 46.94 12.7C46.67 11.95 46.53 11.09 46.53 10.16C46.53 9.23 46.67 8.38 46.94 7.62C47.21 6.86 47.62 6.18 48.16 5.6C48.69 5.03 49.31 4.59 50.02 4.31C50.73 4.02 51.53 3.88 52.42 3.88C53.31 3.88 54.09 4.02 54.8 4.31C55.51 4.6 56.14 5.03 56.67 5.6C57.2 6.18 57.61 6.86 57.87 7.62C58.14 8.38 58.27 9.23 58.27 10.16V10.15ZM48.44 10.15C48.44 11.56 48.81 12.7 49.53 13.52C50.24 14.35 51.21 14.78 52.41 14.78C53.61 14.78 54.58 14.36 55.29 13.52C56 12.71 56.36 11.57 56.36 10.15C56.36 8.73 56 7.58 55.29 6.76C54.57 5.94 53.6 5.52 52.41 5.52C51.22 5.52 50.25 5.94 49.53 6.76C48.81 7.61 48.44 8.75 48.44 10.15ZM64.07 9.9L68.26 4.14H66.21L63.04 8.5L59.87 4.14H57.82L62.01 9.9L57.46 16.16H59.51L63.03 11.31L66.55 16.16H68.6L64.05 9.9H64.07ZM83.9 5.79V9.27H89.87V10.8H83.9V14.5H90.65V16.15H82.06V4.14H90.65V5.79H83.9ZM79.68 10.59C79.08 10.04 78.08 9.61 76.72 9.32L75.68 9.1C74.69 8.89 74 8.63 73.63 8.33C73.27 8.05 73.08 7.64 73.08 7.1C73.08 6.56 73.29 6.16 73.7 5.87C74.11 5.58 74.71 5.44 75.49 5.44C76.49 5.44 77.23 5.62 77.68 5.98C78.13 6.34 78.38 6.91 78.44 7.68V7.7H80.26V7.68C80.24 6.5 79.82 5.56 79.03 4.89C78.24 4.22 77.04 3.88 75.48 3.88C74.18 3.88 73.13 4.18 72.37 4.77C71.61 5.36 71.22 6.16 71.22 7.15C71.22 8.14 71.54 8.92 72.17 9.49C72.8 10.05 73.74 10.46 74.97 10.71L76 10.93C77.01 11.15 77.73 11.41 78.11 11.69C78.5 11.97 78.69 12.38 78.69 12.9C78.69 13.54 78.45 14.04 77.98 14.38C77.51 14.72 76.82 14.89 75.95 14.89C74.89 14.89 74.08 14.66 73.54 14.22C73 13.78 72.72 13.1 72.7 12.21V12.19H70.86V12.21C70.87 13.59 71.32 14.65 72.2 15.37C73.08 16.09 74.33 16.45 75.91 16.45C77.37 16.45 78.52 16.13 79.35 15.49C80.18 14.85 80.59 13.96 80.59 12.85C80.59 11.92 80.29 11.17 79.68 10.61V10.59ZM101.7 14.68L101.58 12.81C101.56 12.15 101.41 11.61 101.14 11.21C100.88 10.82 100.46 10.54 99.91 10.37C100.52 10.17 101.01 9.81 101.35 9.33C101.7 8.83 101.88 8.21 101.88 7.48C101.88 6.45 101.51 5.62 100.77 5.03C100.04 4.44 99.01 4.14 97.74 4.14H92.49V16.16H94.33V11.23H97.8C98.49 11.23 98.99 11.39 99.3 11.7C99.61 12.02 99.78 12.56 99.82 13.33L99.87 14.61C99.88 15.31 100 15.82 100.23 16.15C100.46 16.48 102.12 16.15 102.12 16.15L102.1 16.12C101.89 15.76 101.75 15.27 101.7 14.66V14.68ZM94.33 5.72H97.65C98.41 5.72 98.99 5.88 99.4 6.2C99.8 6.52 100.01 7 100.01 7.63C100.01 8.26 99.81 8.79 99.42 9.15C99.03 9.5 98.48 9.68 97.79 9.68H94.34V5.71L94.33 5.72ZM103.54 16.16H105.38V4.14H103.54V16.16ZM115.8 5.79V4.14H107.21V16.16H115.8V14.51H109.05V10.81H115.02V9.28H109.05V5.8H115.8V5.79ZM125.59 10.59C124.99 10.04 123.99 9.61 122.63 9.32L121.59 9.1C120.6 8.89 119.91 8.63 119.54 8.33C119.18 8.05 118.99 7.64 118.99 7.1C118.99 6.56 119.2 6.16 119.61 5.87C120.02 5.58 120.62 5.44 121.4 5.44C122.4 5.44 123.14 5.62 123.59 5.98C124.04 6.34 124.29 6.91 124.35 7.68V7.7H126.17V7.68C126.15 6.5 125.73 5.56 124.94 4.89C124.15 4.22 122.95 3.88 121.39 3.88C120.09 3.88 119.04 4.18 118.28 4.77C117.52 5.36 117.13 6.16 117.13 7.15C117.13 8.14 117.45 8.92 118.08 9.49C118.71 10.05 119.65 10.46 120.88 10.71L121.91 10.93C122.92 11.15 123.64 11.41 124.02 11.69C124.41 11.97 124.6 12.38 124.6 12.9C124.6 13.54 124.36 14.04 123.89 14.38C123.42 14.72 122.73 14.89 121.86 14.89C120.8 14.89 119.99 14.66 119.45 14.22C118.91 13.78 118.63 13.1 118.61 12.21V12.19H116.77V12.21C116.78 13.59 117.23 14.65 118.11 15.37C118.99 16.09 120.24 16.45 121.82 16.45C123.28 16.45 124.43 16.13 125.26 15.49C126.09 14.85 126.5 13.96 126.5 12.85C126.5 11.92 126.2 11.17 125.59 10.61V10.59ZM145.14 2.64H144.22V17.67H145.14V2.64ZM136.73 9.9L140.92 4.14H138.87L135.7 8.5L132.53 4.14H130.48L134.67 9.9L130.12 16.16H132.17L135.69 11.31L139.21 16.16H141.26L136.71 9.9H136.73ZM156.91 10.59C156.31 10.04 155.31 9.61 153.95 9.32L152.91 9.1C151.92 8.89 151.23 8.63 150.86 8.33C150.5 8.05 150.31 7.64 150.31 7.1C150.31 6.56 150.52 6.16 150.93 5.87C151.34 5.58 151.94 5.44 152.72 5.44C153.72 5.44 154.46 5.62 154.91 5.98C155.36 6.34 155.61 6.91 155.67 7.68V7.7H157.49V7.68C157.47 6.5 157.05 5.56 156.26 4.89C155.47 4.22 154.27 3.88 152.71 3.88C151.41 3.88 150.36 4.18 149.6 4.77C148.84 5.36 148.45 6.16 148.45 7.15C148.45 8.14 148.77 8.92 149.4 9.49C150.03 10.05 150.97 10.46 152.2 10.71L153.23 10.93C154.24 11.15 154.96 11.41 155.34 11.69C155.73 11.97 155.92 12.38 155.92 12.9C155.92 13.54 155.68 14.04 155.21 14.38C154.74 14.72 154.05 14.89 153.18 14.89C152.12 14.89 151.31 14.66 150.77 14.22C150.23 13.78 149.95 13.1 149.93 12.21V12.19H148.09V12.21C148.1 13.59 148.55 14.65 149.43 15.37C150.31 16.09 151.56 16.45 153.14 16.45C154.6 16.45 155.75 16.13 156.58 15.49C157.41 14.85 157.82 13.96 157.82 12.85C157.82 11.92 157.52 11.17 156.91 10.61V10.59Z" fill="currentColor"></path></g><defs><clipPath id=":Rl1dkvf7afcq:"><rect width="157.32" height="20" fill="currentColor" transform="translate(0.5)"></rect></clipPath></defs></svg>